<?xml version="1.0" standalone="no"?>
<!DOCTYPE svg PUBLIC "-//W3C//DTD SVG 20010904//EN"
 "http://www.w3.org/TR/2001/REC-SVG-20010904/DTD/svg10.dtd">
<svg version="1.0" xmlns="http://www.w3.org/2000/svg"
 width="1680.000000pt" height="1543.000000pt" viewBox="0 0 1680.000000 1543.000000"
 preserveAspectRatio="xMidYMid meet">

<g transform="translate(0.000000,1543.000000) scale(0.100000,-0.100000)"
fill="#5fb0ff" stroke="none">
<path d="M2865 15418 c-346 -39 -683 -186 -907 -396 -140 -133 -239 -289 -295
-468 l-28 -89 -3 -1603 -2 -1604 78 -82 c314 -332 526 -940 603 -1726 16 -168
24 -1657 10 -1942 -36 -734 -198 -1334 -470 -1746 -49 -76 -185 -241 -211
-257 -16 -10 -13 -587 4 -677 62 -321 286 -595 633 -773 107 -55 194 -89 203
-78 4 4 21 49 39 98 103 283 303 600 525 834 150 157 406 348 603 449 361 184
705 261 1116 249 344 -10 612 -76 922 -226 564 -273 997 -773 1206 -1391 l38
-115 1353 -2 1353 -2 49 65 c117 155 335 359 516 483 550 376 1244 495 1873
321 300 -83 571 -220 827 -418 104 -81 294 -270 375 -375 l60 -77 145 0 c705
1 1283 363 1432 896 21 76 22 99 26 625 l3 545 -39 65 c-170 279 -311 718
-377 1172 -43 297 -46 411 -42 1445 4 1054 4 1050 58 1372 70 419 204 817 364
1080 l35 58 -2 1664 -3 1663 -23 80 c-133 471 -614 818 -1224 884 -123 14
-10704 13 -10823 -1z m10744 -427 c448 -125 764 -472 836 -916 22 -136 22
-1792 0 -1921 -66 -383 -312 -699 -664 -854 -40 -17 -117 -44 -170 -58 l-96
-27 -5207 -3 c-5098 -2 -5209 -2 -5305 17 -244 48 -450 162 -616 342 -127 137
-218 305 -270 501 -22 83 -22 84 -22 1048 l0 965 27 100 c118 427 475 752 907
825 25 4 2397 7 5271 6 l5225 -1 84 -24z"/>
<path d="M15576 11329 c-319 -51 -628 -568 -765 -1279 -70 -368 -73 -416 -78
-1390 -5 -917 0 -1095 38 -1390 102 -802 409 -1415 762 -1522 154 -46 289 1
442 155 50 51 115 128 144 172 158 240 299 645 365 1050 51 305 51 315 51
1410 0 935 -2 1043 -18 1175 -27 215 -53 356 -98 539 -175 706 -509 1134 -843
1080z"/>
<path d="M1059 11175 c-76 -24 -140 -66 -220 -143 -274 -261 -466 -771 -555
-1467 -15 -111 -18 -272 -21 -1090 -5 -1001 -1 -1122 38 -1405 53 -380 142
-692 274 -965 155 -319 327 -493 529 -535 141 -29 318 57 450 219 280 344 457
914 506 1631 8 112 10 455 7 1065 -3 763 -6 922 -21 1045 -81 698 -273 1221
-551 1496 -109 109 -201 156 -313 161 -49 2 -94 -3 -123 -12z"/>
<path d="M4440 5375 c-473 -61 -885 -269 -1226 -617 -340 -347 -537 -755 -610
-1258 -31 -213 -18 -538 31 -770 162 -777 737 -1407 1487 -1630 310 -92 687
-105 1006 -34 626 140 1150 559 1437 1149 162 333 227 617 227 990 0 366 -66
661 -222 980 -308 634 -865 1058 -1550 1180 -129 23 -441 29 -580 10z"/>
<path d="M11325 4589 c-1096 -85 -1945 -1036 -1945 -2179 0 -857 476 -1628
1225 -1986 482 -230 1020 -264 1527 -94 301 100 562 262 796 492 182 179 310
355 426 589 311 625 314 1360 7 1985 -121 247 -252 425 -454 620 -357 344
-792 538 -1285 574 -149 11 -151 11 -297 -1z"/>
</g>
</svg>
