<?xml version="1.0" standalone="no"?>
<!DOCTYPE svg PUBLIC "-//W3C//DTD SVG 20010904//EN"
 "http://www.w3.org/TR/2001/REC-SVG-20010904/DTD/svg10.dtd">
<svg version="1.0" xmlns="http://www.w3.org/2000/svg"
 width="1665.000000pt" height="1531.000000pt" viewBox="0 0 1665.000000 1531.000000"
 preserveAspectRatio="xMidYMid meet">

<g transform="translate(0.000000,1531.000000) scale(0.100000,-0.100000)"
fill="#5fb0ff" stroke="none">
<path d="M2845 15298 c-371 -42 -731 -208 -952 -441 -120 -126 -199 -261 -250
-424 l-28 -88 -3 -1528 -2 -1529 78 -82 c330 -350 548 -969 624 -1781 19 -200
19 -2040 0 -2240 -52 -554 -171 -1024 -347 -1375 -90 -178 -172 -298 -287
-416 l-70 -71 4 -309 c4 -283 7 -315 27 -383 92 -308 303 -543 641 -712 164
-82 398 -148 580 -164 36 -3 88 -8 116 -11 l52 -5 85 114 c446 600 1069 937
1782 964 524 19 1028 -140 1454 -460 180 -135 404 -370 530 -556 l42 -61 1318
0 1318 0 64 98 c235 357 550 638 931 827 819 406 1788 279 2496 -330 161 -138
355 -365 454 -530 l33 -55 59 0 c130 0 374 52 523 111 410 163 678 435 775
787 20 70 22 107 26 435 l4 357 -55 73 c-280 372 -460 943 -529 1672 -19 200
-19 2040 0 2240 68 719 251 1302 522 1660 l60 80 -2 1585 -3 1585 -23 80
c-136 473 -614 818 -1224 884 -123 14 -10704 13 -10823 -1z m10714 -418 c426
-87 750 -395 869 -828 l27 -97 0 -960 0 -960 -27 -97 c-121 -439 -455 -752
-888 -832 -77 -15 -585 -16 -5300 -14 l-5215 3 -97 27 c-372 103 -668 385
-786 748 -51 156 -52 180 -52 1125 0 746 2 896 15 971 41 238 146 439 319 609
165 163 340 258 561 305 88 18 229 19 5283 19 5146 1 5195 1 5291 -19z"/>
<path d="M1055 11180 c-165 -52 -339 -248 -476 -534 -111 -233 -214 -590 -264
-916 -47 -310 -48 -333 -52 -1305 -5 -972 -1 -1134 38 -1435 127 -1004 550
-1689 965 -1565 316 94 617 663 738 1395 60 362 61 395 61 1485 0 889 -2 1018
-18 1165 -54 510 -168 936 -333 1248 -73 139 -123 211 -211 303 -87 91 -150
134 -234 160 -76 24 -137 23 -214 -1z"/>
<path d="M15370 11177 c-80 -27 -146 -75 -235 -168 -263 -280 -457 -839 -532
-1539 -16 -147 -18 -276 -18 -1165 0 -898 2 -1017 18 -1170 97 -901 401 -1575
770 -1705 240 -84 491 107 696 530 110 227 216 593 266 920 47 310 48 333 52
1305 5 972 1 1129 -38 1435 -78 621 -275 1143 -527 1403 -89 91 -149 132 -233
158 -79 25 -139 24 -219 -4z"/>
<path d="M11360 4670 c-380 -40 -740 -180 -1038 -405 -558 -420 -873 -1061
-873 -1775 0 -369 72 -680 232 -1004 109 -220 235 -394 413 -571 325 -324 702
-516 1161 -591 160 -26 448 -25 615 4 939 159 1646 914 1771 1892 7 52 12 174
12 270 0 185 -11 302 -45 465 -183 886 -887 1568 -1756 1700 -122 19 -380 27
-492 15z"/>
<path d="M4780 4589 c-406 -44 -785 -202 -1100 -456 -107 -87 -285 -272 -367
-383 -178 -240 -307 -514 -377 -801 -46 -192 -60 -317 -60 -539 0 -222 14
-350 60 -539 75 -307 233 -626 431 -871 83 -103 270 -282 376 -362 543 -405
1241 -521 1872 -312 685 227 1216 809 1400 1534 51 201 59 278 59 550 0 272
-8 349 -59 550 -215 847 -882 1474 -1715 1611 -135 23 -398 32 -520 18z"/>
</g>
</svg>
