<?xml version="1.0" standalone="no"?>
<!DOCTYPE svg PUBLIC "-//W3C//DTD SVG 20010904//EN"
 "http://www.w3.org/TR/2001/REC-SVG-20010904/DTD/svg10.dtd">
<svg version="1.0" xmlns="http://www.w3.org/2000/svg"
 width="1676.000000pt" height="1524.000000pt" viewBox="0 0 1676.000000 1524.000000"
 preserveAspectRatio="xMidYMid meet">

<g transform="translate(0.000000,1524.000000) scale(0.100000,-0.100000)"
fill="#000000" stroke="none">
<path d="M2880 15229 c-41 -5 -120 -18 -174 -30 -530 -112 -918 -432 -1039
-857 l-22 -77 -2 -1595 -3 -1595 53 -45 c321 -274 543 -789 618 -1435 16 -142
24 -1335 10 -1579 -25 -440 -112 -804 -265 -1121 -90 -185 -171 -300 -303
-435 l-114 -114 3 -846 c3 -839 4 -846 26 -925 86 -309 317 -563 663 -729 167
-81 154 -86 194 69 112 432 324 805 634 1116 366 365 805 583 1336 660 132 19
454 17 594 -5 503 -77 950 -302 1301 -655 344 -346 579 -790 666 -1255 l18
-96 1361 0 1360 0 50 77 c172 266 406 502 670 678 465 310 1037 440 1584 359
618 -91 1183 -441 1548 -957 39 -56 78 -111 86 -122 14 -20 16 -20 118 -2 423
72 822 336 986 653 l37 71 -36 44 c-149 183 -295 514 -362 819 -65 298 -61
147 -61 2280 l0 1935 23 141 c28 175 69 346 117 484 77 224 215 470 339 607
l56 62 -2 1728 -3 1728 -23 80 c-132 471 -613 818 -1224 884 -119 13 -10703
13 -10818 0z m10689 -419 c426 -87 750 -395 869 -828 l27 -97 0 -960 0 -960
-27 -100 c-37 -135 -130 -319 -214 -424 -157 -195 -368 -329 -621 -393 l-88
-23 -5235 0 -5235 0 -97 27 c-444 123 -756 461 -833 906 -23 128 -22 1809 0
1938 28 161 79 290 168 428 163 250 418 424 712 486 88 18 229 19 5283 19
5146 1 5195 1 5291 -19z"/>
<path d="M1046 10999 c-69 -17 -179 -76 -248 -133 -254 -211 -452 -634 -527
-1130 -37 -237 -43 -437 -38 -1144 5 -672 7 -720 47 -954 110 -646 423 -1130
781 -1208 76 -17 200 -8 270 19 340 130 616 594 718 1206 37 224 41 323 41
1062 0 885 -9 996 -104 1344 -129 469 -378 822 -651 921 -68 24 -223 34 -289
17z"/>
<path d="M15432 10716 c-325 -121 -588 -595 -657 -1182 -23 -193 -23 -3715 0
-3908 64 -544 302 -1008 592 -1153 103 -52 195 -69 284 -53 214 38 403 218
549 522 110 232 172 468 200 763 14 153 14 3603 -1 3751 -47 492 -210 894
-456 1125 -122 115 -226 159 -367 158 -59 0 -98 -6 -144 -23z"/>
<path d="M4645 5479 c-484 -28 -935 -229 -1293 -574 -191 -184 -325 -362 -437
-580 -440 -858 -278 -1917 395 -2595 499 -502 1190 -714 1875 -575 502 102
969 408 1279 838 572 797 551 1890 -53 2682 -68 89 -254 278 -351 355 -408
325 -897 480 -1415 449z"/>
<path d="M11620 4589 c-636 -46 -1215 -391 -1582 -944 -334 -501 -448 -1138
-313 -1738 186 -828 836 -1479 1640 -1641 601 -122 1196 22 1690 409 109 85
297 280 381 395 400 544 537 1224 378 1879 -38 155 -87 290 -163 446 -298 611
-849 1040 -1497 1165 -96 18 -342 42 -404 38 -14 0 -72 -4 -130 -9z"/>
</g>
</svg>
