<?xml version="1.0" standalone="no"?>
<!DOCTYPE svg PUBLIC "-//W3C//DTD SVG 20010904//EN"
 "http://www.w3.org/TR/2001/REC-SVG-20010904/DTD/svg10.dtd">
<svg version="1.0" xmlns="http://www.w3.org/2000/svg"
 width="1676.000000pt" height="1524.000000pt" viewBox="0 0 1676.000000 1524.000000"
 preserveAspectRatio="xMidYMid meet">

<g transform="translate(0.000000,1524.000000) scale(0.100000,-0.100000)"
fill="#5fb0ff" stroke="none">
<path d="M3050 15229 c-602 -68 -1080 -417 -1212 -884 l-23 -80 -3 -1728 -2
-1728 56 -62 c177 -195 342 -545 418 -887 65 -294 61 -158 61 -2285 l0 -1930
-23 -141 c-45 -281 -110 -499 -212 -711 -61 -127 -127 -237 -188 -312 l-36
-44 37 -71 c106 -204 303 -386 556 -511 123 -61 303 -121 430 -142 102 -18
104 -18 118 2 8 11 47 66 87 123 337 477 852 816 1417 932 259 54 514 62 775
25 648 -91 1244 -475 1609 -1038 l50 -77 1362 0 1361 0 7 53 c12 86 71 306
110 412 218 588 640 1063 1179 1326 168 82 269 120 441 164 208 53 333 69 560
69 206 0 339 -14 510 -54 410 -96 789 -307 1096 -610 200 -198 337 -388 463
-640 84 -169 135 -305 180 -483 19 -70 36 -130 39 -133 8 -9 172 64 267 118
279 160 476 400 552 673 22 80 23 85 26 925 l3 846 -114 114 c-132 135 -213
250 -303 435 -131 270 -214 581 -256 955 -18 163 -18 1567 0 1730 42 374 125
685 256 955 102 209 234 389 363 497 l53 43 -3 1595 -2 1595 -23 80 c-133 471
-614 818 -1224 884 -119 13 -10703 13 -10818 0z m10775 -431 c269 -75 505
-248 657 -482 67 -105 109 -201 146 -335 l27 -96 3 -910 c2 -641 0 -933 -8
-989 -47 -323 -226 -604 -503 -787 -99 -65 -191 -106 -329 -147 l-93 -27
-5205 -3 c-4642 -2 -5215 -1 -5294 13 -274 47 -516 190 -691 407 -83 103 -175
286 -212 423 l-28 100 0 960 0 960 27 97 c118 429 441 739 863 828 88 18 225
19 5315 17 l5225 -2 100 -27z"/>
<path d="M15470 10996 c-256 -74 -491 -351 -640 -756 -45 -120 -105 -363 -131
-526 -22 -133 -23 -172 -27 -909 -3 -537 0 -811 8 -905 71 -820 448 -1450 884
-1478 97 -6 169 9 263 55 280 136 527 549 633 1056 64 304 73 488 67 1305 -5
672 -7 720 -47 954 -102 596 -380 1063 -709 1189 -70 27 -233 35 -301 15z"/>
<path d="M1037 10721 c-83 -27 -175 -91 -259 -179 -228 -239 -378 -634 -418
-1099 -8 -90 -10 -676 -7 -1953 4 -1980 0 -1842 57 -2111 46 -218 153 -478
261 -634 165 -240 374 -358 571 -325 308 52 582 428 702 961 58 260 57 213 54
2259 l-3 1875 -23 125 c-97 535 -312 915 -601 1058 -69 34 -82 37 -175 39 -78
2 -114 -1 -159 -16z"/>
<path d="M11855 5479 c-426 -25 -834 -187 -1180 -470 -103 -83 -271 -260 -352
-369 -305 -412 -459 -910 -440 -1425 31 -819 490 -1542 1202 -1891 799 -391
1734 -230 2365 406 662 667 829 1696 416 2553 -130 269 -355 553 -586 740
-405 328 -904 487 -1425 456z"/>
<path d="M4825 4589 c-410 -31 -814 -196 -1150 -469 -84 -68 -262 -251 -326
-335 -137 -179 -271 -425 -342 -631 -245 -706 -126 -1487 316 -2084 82 -111
260 -296 367 -383 483 -391 1103 -545 1705 -422 310 63 620 209 880 415 177
140 379 374 504 581 381 638 415 1465 86 2134 -388 792 -1188 1260 -2040 1194z"/>
</g>
</svg>
