<?xml version="1.0" standalone="no"?>
<!DOCTYPE svg PUBLIC "-//W3C//DTD SVG 20010904//EN"
 "http://www.w3.org/TR/2001/REC-SVG-20010904/DTD/svg10.dtd">
<svg version="1.0" xmlns="http://www.w3.org/2000/svg"
 width="1680.000000pt" height="1543.000000pt" viewBox="0 0 1680.000000 1543.000000"
 preserveAspectRatio="xMidYMid meet">

<g transform="translate(0.000000,1543.000000) scale(0.100000,-0.100000)"
fill="#000000" stroke="none">
<path d="M3110 15423 c-73 -8 -208 -35 -295 -60 -475 -135 -817 -441 -927
-828 l-23 -80 -3 -1663 -2 -1664 35 -58 c177 -292 322 -750 384 -1216 40 -296
43 -410 38 -1419 -4 -1021 -4 -1015 -53 -1329 -64 -413 -207 -846 -363 -1100
l-42 -68 3 -547 c4 -625 3 -617 98 -806 61 -123 126 -210 231 -309 277 -261
679 -405 1129 -406 l145 0 55 72 c71 93 262 286 365 367 335 266 696 423 1115
488 159 24 482 24 640 -1 515 -80 976 -320 1331 -694 53 -55 118 -130 145
-166 l49 -65 1353 2 1352 2 46 135 c118 347 315 662 578 925 386 384 849 607
1384 665 142 16 461 8 592 -15 570 -97 1068 -392 1441 -855 137 -169 295 -450
370 -655 18 -49 35 -94 39 -98 9 -10 160 51 240 96 296 166 491 394 576 673
27 88 28 93 32 421 l4 332 -36 32 c-95 83 -217 259 -312 449 -196 394 -312
902 -344 1500 -13 251 -13 1547 0 1795 44 837 270 1539 612 1900 l78 83 -2
1604 -3 1603 -28 89 c-113 363 -410 639 -843 785 -128 43 -220 64 -354 80 -58
8 -1741 11 -5440 9 -2945 0 -5371 -3 -5390 -5z m10769 -436 c369 -108 654
-375 772 -723 60 -178 60 -171 57 -1190 -3 -924 -3 -929 -26 -1007 -60 -215
-148 -371 -292 -517 -179 -183 -397 -296 -635 -330 -59 -8 -1453 -10 -5275 -8
l-5195 3 -100 27 c-134 37 -319 130 -422 213 -217 174 -360 419 -408 699 -22
129 -22 1785 0 1921 74 461 425 828 885 926 81 17 304 18 5315 16 l5230 -2 94
-28z"/>
<path d="M1105 11329 c-292 -48 -569 -460 -723 -1075 -44 -176 -72 -326 -99
-544 -16 -132 -18 -240 -18 -1170 0 -1072 1 -1092 46 -1380 68 -437 202 -829
370 -1085 29 -44 94 -121 144 -172 107 -108 202 -161 303 -170 352 -32 701
480 856 1257 74 366 86 589 86 1540 0 772 -6 985 -35 1227 -116 956 -520 1639
-930 1572z"/>
<path d="M15525 11172 c-82 -28 -145 -71 -226 -151 -274 -273 -469 -810 -546
-1501 -16 -149 -18 -262 -18 -1145 0 -1068 1 -1091 61 -1445 114 -667 371
-1171 674 -1325 215 -109 446 1 647 307 219 333 369 861 413 1453 8 101 10
461 8 1105 -4 1033 -4 1024 -63 1368 -89 516 -266 939 -489 1170 -39 40 -95
89 -125 109 -104 69 -233 91 -336 55z"/>
<path d="M11876 5378 c-868 -99 -1601 -766 -1810 -1648 -45 -188 -58 -310 -58
-525 -1 -371 66 -661 227 -990 288 -591 813 -1010 1437 -1149 1125 -249 2246
499 2493 1665 46 215 61 542 35 739 -55 425 -224 827 -477 1140 -80 99 -279
291 -375 363 -306 228 -657 367 -1030 407 -114 12 -330 11 -442 -2z"/>
<path d="M5158 4590 c-631 -48 -1209 -395 -1581 -948 -32 -48 -91 -153 -131
-233 -312 -627 -314 -1357 -5 -1989 240 -491 661 -881 1152 -1064 440 -165
906 -176 1347 -34 636 205 1146 717 1364 1369 206 616 136 1303 -187 1852
-293 496 -753 848 -1291 987 -207 54 -456 76 -668 60z"/>
</g>
</svg>
